<svg xmlns="http://www.w3.org/2000/svg" width="700" height="700">
<rect width="100%" height="100%" fill="white" stroke="black"/>
<g transform="translate(350,350) rotate(0) scale(1)">
<polyline points="0.000000,-0.000000 0.000000,20.000000 -20.000000,20.000000 -20.000000,-0.000000 0.000000,-0.000000 " fill="none" stroke="black"/>
</g>
<g transform="translate(354.000000,350.000000) rotate(24.000000) scale(1.250000)">
<polyline points="0.000000,-0.000000 0.000000,-20.000000 20.000000,-20.000000 20.000000,-0.000000 0.000000,-0.000000 " fill="none" stroke="black" stroke-width="1.000000"/>
</g>
<g transform="translate(358.567719,352.033691) rotate(48.000000) scale(1.562500)">
<polyline points="0.000000,-0.000000 0.000000,-20.000000 20.000000,-20.000000 20.000000,-0.000000 0.000000,-0.000000 " fill="none" stroke="black" stroke-width="0.800000"/>
</g>
<g transform="translate(362.749786,356.678345) rotate(72.000000) scale(1.953125)">
<polyline points="0.000000,-0.000000 0.000000,-20.000000 20.000000,-20.000000 20.000000,-0.000000 0.000000,-0.000000 " fill="none" stroke="black" stroke-width="0.640000"/>
</g>
<g transform="translate(365.164001,364.108459) rotate(96.000000) scale(2.441406)">
<polyline points="0.000000,-0.000000 0.000000,-20.000000 20.000000,-20.000000 20.000000,-0.000000 0.000000,-0.000000 " fill="none" stroke="black" stroke-width="0.512000"/>
</g>
<g transform="translate(364.143188,373.820587) rotate(120.000000) scale(3.051758)">
<polyline points="0.000000,-0.000000 0.000000,-20.000000 20.000000,-20.000000 20.000000,-0.000000 0.000000,-0.000000 " fill="none" stroke="black" stroke-width="0.409600"/>
</g>
<g transform="translate(358.039673,384.392181) rotate(144.000000) scale(3.814697)">
<polyline points="0.000000,-0.000000 0.000000,-20.000000 20.000000,-20.000000 20.000000,-0.000000 0.000000,-0.000000 " fill="none" stroke="black" stroke-width="0.327680"/>
</g>
<g transform="translate(345.695068,393.361084) rotate(168.000000) scale(4.768372)">
<polyline points="0.000000,-0.000000 0.000000,-20.000000 20.000000,-20.000000 20.000000,-0.000000 0.000000,-0.000000 " fill="none" stroke="black" stroke-width="0.262144"/>
</g>
<g transform="translate(327.038391,397.326691) rotate(192.000000) scale(5.960464)">
<polyline points="0.000000,-0.000000 0.000000,-20.000000 20.000000,-20.000000 20.000000,-0.000000 0.000000,-0.000000 " fill="none" stroke="black" stroke-width="0.209715"/>
</g>
<g transform="translate(303.717529,392.369690) rotate(216.000000) scale(7.450581)">
<polyline points="0.000000,-0.000000 0.000000,-20.000000 20.000000,-20.000000 20.000000,-0.000000 0.000000,-0.000000 " fill="none" stroke="black" stroke-width="0.167772"/>
</g>
<g transform="translate(279.606934,374.852325) rotate(240.000000) scale(9.313226)">
<polyline points="0.000000,-0.000000 0.000000,-20.000000 20.000000,-20.000000 20.000000,-0.000000 0.000000,-0.000000 " fill="none" stroke="black" stroke-width="0.134218"/>
</g>
<g transform="translate(260.980499,342.590363) rotate(264.000000) scale(11.641532)">
<polyline points="0.000000,-0.000000 0.000000,-20.000000 20.000000,-20.000000 20.000000,-0.000000 0.000000,-0.000000 " fill="none" stroke="black" stroke-width="0.107374"/>
</g>
<g transform="translate(256.113007,296.279327) rotate(288.000000) scale(14.551915)">
<polyline points="0.000000,-0.000000 0.000000,-20.000000 20.000000,-20.000000 20.000000,-0.000000 0.000000,-0.000000 " fill="none" stroke="black" stroke-width="0.085899"/>
</g>
<g transform="translate(274.100159,240.920547) rotate(312.000000) scale(18.189894)">
<polyline points="0.000000,-0.000000 0.000000,-20.000000 20.000000,-20.000000 20.000000,-0.000000 0.000000,-0.000000 " fill="none" stroke="black" stroke-width="0.068719"/>
</g>
<g transform="translate(322.785828,186.849640) rotate(336.000000) scale(22.737368)">
<polyline points="0.000000,-0.000000 0.000000,-20.000000 20.000000,-20.000000 20.000000,-0.000000 0.000000,-0.000000 " fill="none" stroke="black" stroke-width="0.054976"/>
</g>
<g transform="translate(405.872314,149.857162) rotate(360.000000) scale(28.421709)">
<polyline points="0.000000,-0.000000 0.000000,-20.000000 20.000000,-20.000000 20.000000,-0.000000 0.000000,-0.000000 " fill="none" stroke="black" stroke-width="0.043980"/>
</g>
<g transform="translate(519.559143,149.857162) rotate(384.000000) scale(35.527137)">
<polyline points="0.000000,-0.000000 0.000000,-20.000000 20.000000,-20.000000 20.000000,-0.000000 0.000000,-0.000000 " fill="none" stroke="black" stroke-width="0.035184"/>
</g>
<g transform="translate(649.381775,207.657913) rotate(408.000000) scale(44.408921)">
<polyline points="0.000000,-0.000000 0.000000,-20.000000 20.000000,-20.000000 20.000000,-0.000000 0.000000,-0.000000 " fill="none" stroke="black" stroke-width="0.028147"/>
</g>
<g transform="translate(768.243286,339.666931) rotate(432.000000) scale(55.511151)">
<polyline points="0.000000,-0.000000 0.000000,-20.000000 20.000000,-20.000000 20.000000,-0.000000 0.000000,-0.000000 " fill="none" stroke="black" stroke-width="0.022518"/>
</g>
<g transform="translate(836.858826,550.843933) rotate(456.000000) scale(69.388939)">
<polyline points="0.000000,-0.000000 0.000000,-20.000000 20.000000,-20.000000 20.000000,-0.000000 0.000000,-0.000000 " fill="none" stroke="black" stroke-width="0.018014"/>
</g>
<g transform="translate(807.846313,826.879211) rotate(480.000000) scale(86.736174)">
<polyline points="0.000000,-0.000000 0.000000,-20.000000 20.000000,-20.000000 20.000000,-0.000000 0.000000,-0.000000 " fill="none" stroke="black" stroke-width="0.014412"/>
</g>
<g transform="translate(346.000000,350.000000) rotate(24.000000) scale(1.250000)">
<polyline points="0.000000,-0.000000 0.000000,20.000000 -20.000000,20.000000 -20.000000,-0.000000 0.000000,-0.000000 " fill="none" stroke="black" stroke-width="1.000000"/>
</g>
<g transform="translate(341.432281,347.966309) rotate(48.000000) scale(1.562500)">
<polyline points="0.000000,-0.000000 0.000000,20.000000 -20.000000,20.000000 -20.000000,-0.000000 0.000000,-0.000000 " fill="none" stroke="black" stroke-width="0.800000"/>
</g>
<g transform="translate(350,350) rotate(0) scale(1)">
<polyline points="0.000000,-0.000000 0.000000,-20.000000 20.000000,-20.000000 20.000000,-0.000000 0.000000,-0.000000 " fill="none" stroke="black"/>
</g>
<g transform="translate(337.250214,343.321655) rotate(72.000000) scale(1.953125)">
<polyline points="0.000000,-0.000000 0.000000,20.000000 -20.000000,20.000000 -20.000000,-0.000000 0.000000,-0.000000 " fill="none" stroke="black" stroke-width="0.640000"/>
</g>
<g transform="translate(334.835999,335.891541) rotate(96.000000) scale(2.441406)">
<polyline points="0.000000,-0.000000 0.000000,20.000000 -20.000000,20.000000 -20.000000,-0.000000 0.000000,-0.000000 " fill="none" stroke="black" stroke-width="0.512000"/>
</g>
<g transform="translate(335.856812,326.179413) rotate(120.000000) scale(3.051758)">
<polyline points="0.000000,-0.000000 0.000000,20.000000 -20.000000,20.000000 -20.000000,-0.000000 0.000000,-0.000000 " fill="none" stroke="black" stroke-width="0.409600"/>
</g>
<g transform="translate(341.960327,315.607819) rotate(144.000000) scale(3.814697)">
<polyline points="0.000000,-0.000000 0.000000,20.000000 -20.000000,20.000000 -20.000000,-0.000000 0.000000,-0.000000 " fill="none" stroke="black" stroke-width="0.327680"/>
</g>
<g transform="translate(354.304932,306.638916) rotate(168.000000) scale(4.768372)">
<polyline points="0.000000,-0.000000 0.000000,20.000000 -20.000000,20.000000 -20.000000,-0.000000 0.000000,-0.000000 " fill="none" stroke="black" stroke-width="0.262144"/>
</g>
<g transform="translate(372.961609,302.673309) rotate(192.000000) scale(5.960464)">
<polyline points="0.000000,-0.000000 0.000000,20.000000 -20.000000,20.000000 -20.000000,-0.000000 0.000000,-0.000000 " fill="none" stroke="black" stroke-width="0.209715"/>
</g>
<g transform="translate(396.282471,307.630310) rotate(216.000000) scale(7.450581)">
<polyline points="0.000000,-0.000000 0.000000,20.000000 -20.000000,20.000000 -20.000000,-0.000000 0.000000,-0.000000 " fill="none" stroke="black" stroke-width="0.167772"/>
</g>
<g transform="translate(420.393066,325.147675) rotate(240.000000) scale(9.313226)">
<polyline points="0.000000,-0.000000 0.000000,20.000000 -20.000000,20.000000 -20.000000,-0.000000 0.000000,-0.000000 " fill="none" stroke="black" stroke-width="0.134218"/>
</g>
<g transform="translate(439.019501,357.409637) rotate(264.000000) scale(11.641532)">
<polyline points="0.000000,-0.000000 0.000000,20.000000 -20.000000,20.000000 -20.000000,-0.000000 0.000000,-0.000000 " fill="none" stroke="black" stroke-width="0.107374"/>
</g>
<g transform="translate(443.886993,403.720673) rotate(288.000000) scale(14.551915)">
<polyline points="0.000000,-0.000000 0.000000,20.000000 -20.000000,20.000000 -20.000000,-0.000000 0.000000,-0.000000 " fill="none" stroke="black" stroke-width="0.085899"/>
</g>
<g transform="translate(425.899841,459.079468) rotate(312.000000) scale(18.189894)">
<polyline points="0.000000,-0.000000 0.000000,20.000000 -20.000000,20.000000 -20.000000,-0.000000 0.000000,-0.000000 " fill="none" stroke="black" stroke-width="0.068719"/>
</g>
<g transform="translate(377.214172,513.150391) rotate(336.000000) scale(22.737368)">
<polyline points="0.000000,-0.000000 0.000000,20.000000 -20.000000,20.000000 -20.000000,-0.000000 0.000000,-0.000000 " fill="none" stroke="black" stroke-width="0.054976"/>
</g>
<g transform="translate(294.127686,550.142822) rotate(360.000000) scale(28.421709)">
<polyline points="0.000000,-0.000000 0.000000,20.000000 -20.000000,20.000000 -20.000000,-0.000000 0.000000,-0.000000 " fill="none" stroke="black" stroke-width="0.043980"/>
</g>
<g transform="translate(180.440857,550.142822) rotate(384.000000) scale(35.527137)">
<polyline points="0.000000,-0.000000 0.000000,20.000000 -20.000000,20.000000 -20.000000,-0.000000 0.000000,-0.000000 " fill="none" stroke="black" stroke-width="0.035184"/>
</g>
<g transform="translate(50.618225,492.342102) rotate(408.000000) scale(44.408921)">
<polyline points="0.000000,-0.000000 0.000000,20.000000 -20.000000,20.000000 -20.000000,-0.000000 0.000000,-0.000000 " fill="none" stroke="black" stroke-width="0.028147"/>
</g>
<g transform="translate(-68.243256,360.333069) rotate(432.000000) scale(55.511151)">
<polyline points="0.000000,-0.000000 0.000000,20.000000 -20.000000,20.000000 -20.000000,-0.000000 0.000000,-0.000000 " fill="none" stroke="black" stroke-width="0.022518"/>
</g>
<g transform="translate(-136.858826,149.156082) rotate(456.000000) scale(69.388939)">
<polyline points="0.000000,-0.000000 0.000000,20.000000 -20.000000,20.000000 -20.000000,-0.000000 0.000000,-0.000000 " fill="none" stroke="black" stroke-width="0.018014"/>
</g>
<g transform="translate(-107.846344,-126.879211) rotate(480.000000) scale(86.736174)">
<polyline points="0.000000,-0.000000 0.000000,20.000000 -20.000000,20.000000 -20.000000,-0.000000 0.000000,-0.000000 " fill="none" stroke="black" stroke-width="0.014412"/>
</g>
</svg>
